<svg width="236" height="236" viewBox="0 0 236 236" fill="none" xmlns="http://www.w3.org/2000/svg">
<path d="M117.805 197.039C97.9338 197.065 78.778 189.64 64.1303 176.235C49.4825 162.83 40.4111 144.422 38.7123 124.656C37.0135 104.891 42.8112 85.2094 54.9574 69.5089C67.1036 53.8085 84.7125 43.2342 104.297 39.88C123.882 36.5258 144.014 40.6363 160.707 51.3976C177.4 62.1588 189.437 78.786 194.433 97.9867C199.43 117.187 197.023 137.561 187.688 155.074C178.352 172.586 162.77 185.961 144.027 192.548C135.603 195.513 126.737 197.032 117.805 197.039ZM117.805 40.4617C105.416 40.4868 93.2127 43.4685 82.2127 49.1582C71.2127 54.848 61.7346 63.0808 54.5688 73.1702C47.403 83.2597 42.7572 94.9133 41.0188 107.159C39.2804 119.405 40.4998 131.889 44.5752 143.569C49.2963 156.952 57.6115 168.782 68.612 177.765C79.6124 186.749 92.8748 192.541 106.95 194.508C121.024 196.475 135.37 194.541 148.419 188.918C161.467 183.296 172.716 174.2 180.937 162.626C189.157 151.051 194.032 137.444 195.03 123.29C196.027 109.136 193.108 94.9809 186.592 82.3715C180.075 69.7621 170.213 59.1837 158.081 51.7924C145.95 44.4011 132.017 40.4814 117.805 40.4617Z" fill="#002177"/>
<path d="M117.807 193.347C98.8542 193.347 80.5924 186.242 66.6368 173.439C52.6812 160.637 44.0492 143.07 42.4497 124.216C40.8501 105.361 46.3997 86.595 57.9997 71.6315C69.5997 56.668 86.4045 46.5982 105.087 43.4157C123.77 40.2332 142.968 44.17 158.882 54.4467C174.796 64.7234 186.264 80.5909 191.018 98.9077C195.771 117.225 193.462 136.656 184.548 153.354C175.635 170.052 160.766 182.8 142.885 189.075C134.826 191.898 126.348 193.343 117.807 193.347ZM117.807 47.2849C102.788 47.2691 88.1535 52.0229 76.0195 60.8589C63.8856 69.6948 54.8812 82.1549 50.3085 96.4372C45.7359 110.72 45.832 126.084 50.583 140.308C55.334 154.532 64.4937 166.879 76.7373 175.563C88.9809 184.247 103.674 188.817 118.691 188.614C133.709 188.411 148.272 183.444 160.276 174.433C172.279 165.421 181.1 152.831 185.463 138.483C189.827 124.136 189.506 108.775 184.547 94.6212C179.691 80.8095 170.665 68.8407 158.713 60.3632C146.76 51.8856 132.469 47.3165 117.807 47.2849Z" fill="#002177"/>
<path d="M117.807 165.617C105.84 165.641 94.2999 161.175 85.4749 153.105C76.6499 145.035 71.1836 133.949 70.1595 122.045C69.1354 110.141 72.6282 98.2874 79.9456 88.8331C87.263 79.3789 97.8711 73.0141 109.667 71.0002C121.464 68.9864 133.587 71.4704 143.636 77.96C153.684 84.4496 160.924 94.4712 163.92 106.039C166.916 117.606 165.45 129.875 159.812 140.414C154.175 150.953 144.777 158.993 133.481 162.941C128.443 164.7 123.145 165.605 117.807 165.617ZM117.807 71.8519C108.007 71.8473 98.459 74.9548 90.5443 80.725C82.6296 86.4952 76.7583 94.6291 73.7794 103.95C70.8006 113.272 70.8685 123.297 73.9734 132.578C77.0783 141.858 83.0592 149.912 91.0514 155.575C99.0435 161.238 108.633 164.216 118.432 164.079C128.231 163.942 137.733 160.697 145.563 154.813C153.394 148.929 159.146 140.711 161.99 131.348C164.833 121.984 164.62 111.961 161.381 102.726C158.206 93.7145 152.311 85.9068 144.507 80.3778C136.704 74.8488 127.376 71.8702 117.807 71.8519Z" fill="#002177"/>
<path d="M70.6418 76.499C71.637 76.1023 72.7265 76.0044 73.7766 76.2173C74.8843 76.4113 75.9219 76.8915 76.7861 77.61C77.6712 78.2893 78.3673 79.1835 78.808 80.2076C79.2278 81.161 79.369 82.2134 79.2155 83.2434C79.069 84.3024 78.6293 85.2996 77.9459 86.1227C77.2838 86.962 76.414 87.6145 75.4224 88.0161C74.4284 88.4163 73.3393 88.5196 72.2876 88.3135C71.1884 88.0982 70.1572 87.6217 69.2815 86.9244C68.4057 86.2271 67.711 85.3295 67.2562 84.3075C66.8237 83.3245 66.6875 82.2369 66.8644 81.1778C67.0494 80.1397 67.4941 79.165 68.1572 78.3444C68.8203 77.5237 69.6803 76.8835 70.6575 76.4833L70.6418 76.499ZM68.3221 81.3969C68.2138 82.164 68.328 82.946 68.6512 83.6503C69.0066 84.4329 69.5439 85.1196 70.2186 85.6532C70.8878 86.2128 71.6844 86.5997 72.5384 86.7799C73.305 86.9783 74.1137 86.9401 74.8581 86.6704C75.5898 86.3745 76.2323 85.8947 76.7234 85.2777C77.2143 84.6682 77.5336 83.9389 77.6481 83.1652C77.7582 82.3981 77.6439 81.6156 77.319 80.9118C76.9281 80.1377 76.3742 79.4572 75.6951 78.9169C75.016 78.3767 74.2279 77.9896 73.3848 77.7821C72.6251 77.6221 71.8351 77.6874 71.112 77.9699C70.3873 78.2551 69.7536 78.7309 69.2782 79.347C68.7878 79.9365 68.4584 80.6427 68.3221 81.3969Z" fill="#002177"/>
<path d="M81.8476 65.6094L83.415 73.9656L86.299 77.5491L85.0608 78.5506L82.2238 74.9671L74.3867 71.587L75.8131 70.4447L81.7535 73.1519L80.3899 66.7204L81.8476 65.6094Z" fill="#002177"/>
<path d="M86.6467 64.2789L88.6373 67.8936L92.7283 65.7185L93.3082 66.767L89.2643 68.9734L91.2862 72.6977L95.8004 70.2409L96.4117 71.3519L90.5182 74.4816L84.7031 63.8407L90.5809 60.6328L91.1922 61.7438L86.6467 64.2789Z" fill="#002177"/>
<path d="M103.417 63.3407C104.014 63.6938 104.464 64.249 104.686 64.9055C104.846 65.3214 104.911 65.7677 104.875 66.2117C104.84 66.6557 104.706 67.0863 104.482 67.4719C103.897 68.3465 103.01 68.9759 101.99 69.2401L97.7112 70.6641L93.8711 59.1469L98.0874 57.7386C99.0127 57.3672 100.04 57.3339 100.987 57.6447C101.664 57.9827 102.196 58.554 102.484 59.2529C102.772 59.9519 102.797 60.7313 102.555 61.4472C102.303 62.0325 101.868 62.5209 101.316 62.8399C102.054 62.7533 102.798 62.9307 103.417 63.3407ZM97.0373 63.7632L99.5294 62.9338C100.171 62.7975 100.734 62.4155 101.097 61.8698C101.229 61.633 101.307 61.37 101.326 61.0995C101.345 60.8291 101.304 60.5578 101.207 60.3049C101.136 60.0414 101.006 59.7973 100.827 59.5913C100.647 59.3852 100.424 59.2226 100.172 59.1156C99.5561 58.8824 98.8758 58.8824 98.2598 59.1156L95.8304 59.9294L97.0373 63.7632ZM102.946 67.0024C103.101 66.7458 103.195 66.4569 103.219 66.1583C103.244 65.8596 103.199 65.5594 103.087 65.2811C103.007 64.9904 102.86 64.7222 102.659 64.497C102.458 64.2719 102.208 64.0958 101.928 63.9823C101.275 63.7415 100.558 63.7415 99.9056 63.9823L97.4291 64.8742L98.7927 68.9897L101.316 68.1447C101.978 67.9693 102.556 67.5643 102.946 67.0024Z" fill="#002177"/>
<path d="M107.114 55.4993L108.023 62.7289C108.065 63.6751 108.456 64.5726 109.121 65.2483C109.44 65.5005 109.808 65.6824 110.203 65.7822C110.597 65.882 111.008 65.8974 111.409 65.8272C111.803 65.8086 112.189 65.7036 112.538 65.5197C112.888 65.3358 113.193 65.0776 113.431 64.7632C113.916 63.9493 114.078 62.9834 113.885 62.056L112.992 54.8265L114.559 54.6387L115.453 61.8682C115.696 63.1842 115.415 64.5431 114.669 65.6551C114.279 66.1135 113.801 66.4884 113.262 66.7573C112.723 67.0262 112.136 67.1836 111.534 67.2199C110.941 67.3231 110.332 67.3027 109.747 67.1599C109.162 67.0172 108.612 66.7553 108.133 66.3906C107.63 65.9393 107.222 65.393 106.931 64.7834C106.641 64.1737 106.474 63.5127 106.44 62.8384L105.547 55.6089L107.114 55.4993Z" fill="#002177"/>
<path d="M125.313 65.6565C124.978 66.1469 124.51 66.5323 123.965 66.7675C123.295 67.0426 122.569 67.1501 121.849 67.0805C121.111 67.0369 120.394 66.8284 119.748 66.4702C119.171 66.1699 118.684 65.7216 118.338 65.1714C117.996 64.6324 117.812 64.0094 117.805 63.3718L119.466 63.497C119.486 63.8573 119.582 64.2093 119.748 64.5298C119.932 64.8835 120.208 65.1809 120.548 65.3905C120.943 65.653 121.405 65.7994 121.88 65.813C122.437 65.879 122.999 65.7277 123.447 65.3905C123.644 65.2167 123.803 65.0052 123.917 64.7687C124.03 64.5321 124.094 64.2753 124.106 64.0134C124.155 63.5841 124.049 63.1513 123.808 62.7928C123.569 62.4635 123.265 62.1865 122.914 61.9791C122.538 61.7757 122.037 61.5566 121.347 61.2906C120.729 61.0476 120.127 60.7654 119.545 60.4456C119.087 60.1801 118.704 59.8033 118.432 59.3502C118.122 58.8041 117.996 58.1735 118.071 57.5506C118.119 56.9863 118.319 56.4454 118.651 55.9858C119.007 55.518 119.492 55.1643 120.046 54.9687C120.691 54.728 121.384 54.6423 122.068 54.7183C123.094 54.7294 124.08 55.1132 124.842 55.798C125.486 56.3889 125.869 57.2104 125.908 58.0827L124.215 57.9575C124.16 57.4584 123.933 56.994 123.573 56.643C123.158 56.224 122.595 55.9827 122.005 55.9702C121.454 55.8954 120.895 56.0294 120.438 56.3457C120.232 56.5052 120.064 56.709 119.947 56.942C119.831 57.1749 119.768 57.4311 119.764 57.6915C119.715 58.0988 119.816 58.5099 120.046 58.8495C120.277 59.1677 120.577 59.4298 120.924 59.6162C121.397 59.8624 121.884 60.0819 122.382 60.2735C123.009 60.525 123.621 60.8124 124.215 61.1341C124.582 61.3704 124.898 61.6767 125.146 62.0355C125.393 62.3943 125.567 62.7984 125.657 63.2246C125.748 63.6508 125.753 64.0906 125.672 64.5188C125.591 64.9469 125.426 65.3548 125.187 65.7191L125.313 65.6565Z" fill="#002177"/>
<path d="M138.654 58.0037L132.87 64.263L131.695 68.7071L130.127 68.3003L131.303 63.8562L129.406 55.5469L131.177 56.0163L132.557 62.4478L136.93 57.5342L138.654 58.0037Z" fill="#002177"/>
<path d="M117.807 161.564C109.793 161.573 101.932 159.381 95.0829 155.228C88.2341 151.074 82.6621 145.12 78.9771 138.015C75.2921 130.911 73.6361 122.932 74.1906 114.951C74.7451 106.97 77.4886 99.2949 82.1207 92.7667C86.7529 86.2385 93.095 81.1086 100.453 77.9389C107.81 74.7692 115.9 73.6818 123.835 74.7959C131.77 75.9099 139.245 79.1825 145.442 84.2551C151.639 89.3277 156.318 96.0048 158.967 103.555C161.267 110.123 161.961 117.146 160.988 124.036C160.016 130.926 157.407 137.484 153.378 143.162C149.349 148.839 144.018 153.473 137.83 156.674C131.642 159.875 124.776 161.552 117.807 161.564ZM117.807 79.0656C109.54 79.065 101.487 81.6894 94.8125 86.5592C88.138 91.429 83.1879 98.2919 80.6778 106.156C78.1677 114.019 78.2278 122.476 80.8493 130.303C83.4708 138.131 88.5179 144.923 95.2608 149.698C102.004 154.473 110.093 156.983 118.359 156.865C126.625 156.748 134.64 154.008 141.243 149.044C147.847 144.079 152.699 137.146 155.096 129.247C157.493 121.349 157.311 112.894 154.578 105.104C151.9 97.5 146.925 90.912 140.339 86.2484C133.753 81.5849 125.881 79.0753 117.807 79.0656Z" fill="#002177"/>
<path d="M101.082 169.31C101.69 170.286 101.944 171.44 101.803 172.58L100.236 171.986C100.24 171.231 100.01 170.493 99.5772 169.873C99.1024 169.206 98.4355 168.698 97.665 168.418C96.9676 168.126 96.2036 168.028 95.455 168.136C94.7232 168.254 94.039 168.574 93.48 169.06C92.847 169.622 92.3625 170.331 92.0694 171.125C91.7297 171.914 91.5897 172.774 91.6619 173.629C91.7292 174.379 92.0184 175.093 92.4926 175.679C92.9851 176.294 93.635 176.764 94.3735 177.04C95.0084 177.3 95.6967 177.402 96.3797 177.338C97.0593 177.268 97.7083 177.019 98.2606 176.618C98.864 176.176 99.353 175.596 99.687 174.928L95.3923 173.222L95.8155 172.158L101.301 174.349L100.784 175.663C100.366 176.469 99.765 177.166 99.0287 177.697C98.2994 178.213 97.4542 178.54 96.5678 178.652C95.6081 178.754 94.638 178.614 93.7465 178.245C92.7551 177.874 91.8831 177.241 91.223 176.414C90.6144 175.63 90.2347 174.693 90.1258 173.707C90.0259 172.64 90.1929 171.565 90.6117 170.577C90.9981 169.564 91.6279 168.662 92.4456 167.949C93.2038 167.304 94.1261 166.881 95.1101 166.728C96.1713 166.57 97.2554 166.706 98.245 167.119C99.3998 167.53 100.394 168.297 101.082 169.31Z" fill="#002177"/>
<path d="M105.957 169.702L104.751 176.649C104.514 177.539 104.626 178.484 105.064 179.294C105.282 179.62 105.569 179.894 105.905 180.097C106.241 180.299 106.617 180.426 107.008 180.468C107.387 180.555 107.781 180.559 108.162 180.481C108.544 180.403 108.904 180.243 109.218 180.014C109.883 179.381 110.3 178.532 110.393 177.62L111.6 170.672L113.168 170.938L111.945 177.886C111.886 178.535 111.698 179.165 111.391 179.74C111.084 180.316 110.665 180.823 110.158 181.234C109.671 181.567 109.12 181.795 108.54 181.906C107.96 182.016 107.364 182.006 106.788 181.876C106.208 181.806 105.648 181.615 105.146 181.316C104.644 181.017 104.21 180.616 103.873 180.139C103.53 179.583 103.303 178.964 103.206 178.319C103.109 177.673 103.144 177.015 103.309 176.383L104.515 169.436L105.957 169.702Z" fill="#002177"/>
<path d="M121.708 179.935L116.535 180.044L115.61 182.783H114.043L118.087 171.172H119.795L124.388 182.626H122.82L121.708 179.935ZM121.253 178.761L118.965 172.862L116.943 178.855L121.253 178.761Z" fill="#002177"/>
<path d="M133.324 180.875L129.342 176.79L127.775 177.135L128.747 181.829L127.179 182.142L124.812 170.625L128.606 169.842C129.654 169.548 130.776 169.666 131.74 170.171C132.457 170.692 132.967 171.447 133.182 172.305C133.397 173.163 133.303 174.07 132.916 174.866C132.433 175.615 131.7 176.169 130.847 176.43L135.048 180.562L133.324 180.875ZM127.493 176.055L129.671 175.601C131.364 175.257 132.054 174.334 131.756 172.863C131.458 171.392 130.455 170.813 128.778 171.173L126.599 171.626L127.493 176.055Z" fill="#002177"/>
<path d="M143.321 174.568L138.509 176.493L138.603 179.388L137.036 179.998L136.801 167.651L138.368 167.025L146.691 176.133L145.124 176.727L143.321 174.568ZM142.475 173.629L138.274 168.934L138.478 175.194L142.475 173.629Z" fill="#002177"/>
<path d="M157.068 169.718L155.798 170.547L145.594 166.087L150.673 173.912L149.387 174.741L142.961 164.914L144.246 164.084L154.45 168.544L149.372 160.72L150.641 159.891L157.068 169.718Z" fill="#002177"/>
<path d="M157.116 153.803L157.963 154.71L155.533 156.979L162.759 164.647L161.646 165.695L154.42 158.028L152.007 160.297L151.16 159.405L157.116 153.803Z" fill="#002177"/>
<path d="M159.529 152.724L162.664 155.196L165.438 151.691L166.394 152.395L163.62 155.916L166.849 158.451L169.984 154.539L170.956 155.306L166.927 160.407L157.68 153.131L161.692 148.045L162.664 148.812L159.529 152.724Z" fill="#002177"/>
<path d="M164.154 146.259L167.649 148.247L169.875 144.381L170.894 144.96L168.653 148.841L172.226 150.876L174.703 146.572L175.769 147.183L172.54 152.8L162.32 146.963L165.565 141.33L166.631 141.94L164.154 146.259Z" fill="#002177"/>
<path d="M18.2109 133.523L204.732 68.3008L193.761 91.0535L217.397 102.414L30.2486 167.856L41.8788 143.741L18.2109 133.523Z" fill="#002177"/>
<path d="M80.9876 124.039L85.4547 136.746L83.7932 137.325L81.7556 131.472L75.2822 133.741L77.3512 139.625L75.7054 140.204L71.2383 127.466L72.8057 126.887L74.7493 132.395L81.2227 130.142L79.2791 124.634L80.9876 124.039Z" fill="white"/>
<path d="M94.5309 130.298L88.9352 132.254V135.572L87.1641 136.198L87.4932 122.114L89.3584 121.457L98.4494 132.301L96.6782 132.927L94.5309 130.298ZM93.6218 129.172L89.0293 123.57V130.815L93.6218 129.172Z" fill="white"/>
<path d="M99.9195 125.964L101.722 131.097L100.155 131.66L95.6875 118.938L99.7314 117.514C100.884 117.016 102.183 116.972 103.368 117.389C103.861 117.626 104.299 117.963 104.655 118.378C105.011 118.793 105.277 119.276 105.437 119.799C105.633 120.301 105.722 120.84 105.698 121.379C105.674 121.918 105.537 122.446 105.296 122.928C104.626 123.972 103.593 124.73 102.396 125.057L99.9195 125.964ZM103.697 122.412C103.943 121.761 103.953 121.043 103.723 120.386C103.494 119.728 103.041 119.171 102.443 118.813C101.661 118.554 100.811 118.599 100.061 118.938L97.8035 119.736L99.4963 124.587L101.769 123.805C102.565 123.601 103.254 123.103 103.697 122.412Z" fill="white"/>
<path d="M110.252 122.349L112.054 127.482L110.487 128.061L106.02 115.323L109.969 113.899C111.122 113.397 112.425 113.358 113.606 113.79C114.101 114.022 114.54 114.357 114.894 114.772C115.248 115.188 115.509 115.675 115.659 116.2C115.865 116.7 115.959 117.24 115.934 117.78C115.91 118.32 115.768 118.849 115.518 119.329C114.859 120.376 113.829 121.135 112.634 121.457L110.252 122.349ZM113.966 118.797C114.214 118.144 114.223 117.425 113.991 116.766C113.758 116.107 113.3 115.552 112.697 115.198C111.92 114.939 111.074 114.984 110.33 115.323L108.057 116.121L109.766 120.972L112.023 120.19C112.823 119.986 113.516 119.488 113.966 118.797Z" fill="white"/>
<path d="M117.915 111.129L122.383 123.867L120.815 124.446L116.238 111.708L117.915 111.129Z" fill="white"/>
<path d="M134.92 119.533L133.353 120.112L123.211 112.288L126.738 122.349L125.092 122.928L120.547 110.144L122.114 109.58L132.271 117.405L128.776 107.327L130.343 106.748L134.92 119.533Z" fill="white"/>
<path d="M135.218 106.593L136.785 110.943L141.628 109.237L142.083 110.505L137.224 112.195L138.791 116.639L144.136 114.839L144.606 116.169L137.569 118.626L133.102 105.904L140.139 103.447L140.609 104.777L135.218 106.593Z" fill="white"/>
<path d="M153.855 111.066C153.734 111.712 153.429 112.31 152.977 112.788C152.426 113.369 151.736 113.8 150.971 114.04C150.201 114.327 149.376 114.44 148.557 114.368C147.832 114.308 147.135 114.06 146.535 113.648C145.956 113.262 145.5 112.719 145.219 112.084L146.974 111.473C147.156 111.855 147.428 112.186 147.766 112.44C148.105 112.693 148.5 112.861 148.918 112.929C149.445 113.018 149.986 112.964 150.485 112.772C150.793 112.687 151.081 112.54 151.332 112.341C151.582 112.142 151.79 111.895 151.943 111.614C152.056 111.347 152.114 111.059 152.114 110.769C152.114 110.479 152.056 110.192 151.943 109.924C151.802 109.461 151.495 109.065 151.081 108.813C150.696 108.575 150.261 108.431 149.811 108.391C149.2 108.348 148.588 108.348 147.977 108.391C147.241 108.436 146.503 108.436 145.767 108.391C145.203 108.316 144.665 108.107 144.2 107.78C143.558 107.344 143.092 106.696 142.883 105.949C142.69 105.328 142.69 104.662 142.883 104.04C142.995 103.391 143.301 102.791 143.761 102.319C144.323 101.797 144.991 101.402 145.72 101.161C146.771 100.721 147.946 100.676 149.027 101.036C149.944 101.36 150.697 102.028 151.128 102.898L149.356 103.524C149.068 103.041 148.627 102.667 148.103 102.46C147.488 102.217 146.805 102.217 146.19 102.46C145.6 102.629 145.096 103.015 144.78 103.54C144.64 103.791 144.559 104.071 144.542 104.358C144.526 104.645 144.575 104.933 144.686 105.198C144.816 105.642 145.106 106.021 145.501 106.262C145.874 106.483 146.291 106.617 146.723 106.654C147.162 106.654 147.758 106.654 148.51 106.654C149.262 106.601 150.016 106.601 150.767 106.654C151.334 106.737 151.872 106.957 152.335 107.295C152.916 107.741 153.339 108.36 153.541 109.063C153.843 109.685 153.952 110.382 153.855 111.066Z" fill="white"/>
<path d="M164.06 107.467C163.936 108.112 163.632 108.709 163.183 109.189C162.625 109.769 161.929 110.199 161.161 110.44C160.391 110.728 159.566 110.84 158.747 110.769C158.031 110.73 157.337 110.515 156.725 110.143C156.153 109.749 155.698 109.209 155.408 108.578L157.164 107.952C157.334 108.318 157.586 108.639 157.9 108.891C158.253 109.164 158.668 109.347 159.107 109.423C159.636 109.508 160.177 109.448 160.675 109.251C160.983 109.166 161.271 109.019 161.522 108.82C161.772 108.621 161.98 108.374 162.132 108.093C162.249 107.83 162.31 107.544 162.31 107.256C162.31 106.968 162.249 106.682 162.132 106.419C161.987 105.958 161.688 105.561 161.286 105.292C160.899 105.059 160.466 104.915 160.016 104.87C159.4 104.835 158.783 104.835 158.167 104.87C157.431 104.914 156.693 104.914 155.957 104.87C155.392 104.79 154.854 104.575 154.389 104.244C153.78 103.762 153.364 103.08 153.214 102.319C152.975 101.709 152.924 101.041 153.07 100.402C153.215 99.7632 153.549 99.1825 154.029 98.7355C154.595 98.2295 155.263 97.8507 155.988 97.6244C157.04 97.1925 158.21 97.1426 159.295 97.4836C160.215 97.8097 160.97 98.4842 161.396 99.3614L159.625 99.9717C159.337 99.4935 158.903 99.1204 158.386 98.9076C157.766 98.6658 157.078 98.6658 156.458 98.9076C155.878 99.0858 155.378 99.4626 155.048 99.9717C154.908 100.226 154.826 100.508 154.81 100.798C154.794 101.088 154.843 101.378 154.954 101.646C155.093 102.085 155.381 102.461 155.769 102.71C156.145 102.921 156.562 103.049 156.991 103.086C157.592 103.12 158.193 103.12 158.794 103.086C159.54 103.042 160.289 103.042 161.035 103.086C161.636 103.162 162.207 103.388 162.697 103.743C163.276 104.184 163.699 104.798 163.904 105.496C164.138 106.126 164.192 106.808 164.06 107.467Z" fill="white"/>
</svg>
